{"title":"Shauna Sand Exposed (SteRipper)(RSC)","uid":5157727,"size":738554058,"categoryP":"porn","categoryS":"movies","magnet":"?xt=urn:btih:a7b090f4dfbb11b90dc40f8bd6ca839a44a59e5d&amp;dn=Shauna+Sand+Exposed+%28SteRipper%29%28RSC%29&amp;tr=udp%3A%2F%2Ftracker.openbittorrent.com%3A80&amp;tr=udp%3A%2F%2Fopen.demonii.com%3A1337&amp;tr=udp%3A%2F%2Ftracker.coppersurfer.tk%3A6969&amp;tr=udp%3A%2F%2Fexodus.desync.com%3A6969","seeders":0,"leechers":3,"uploader":"SteRipper","files":-1,"time":1257955975,"description":"This is the Shauna Sand-Lamas Sex Tape.\n\nI got this viaLinks posted by user Darkwad on another torrent.\nIt was from the vivid.com website, and it was a .FLV file.\n\nAll I did was convert it to a AVI, so it can be recoded to DVD, or whatever you like. \n\nThis is my first Movie upload. :D\n\nEnjoy.\n\n\nFormat                           : AVI\nFormat/Info                      : Audio Video Interleave\nFile size                        : 704 MiB\nDuration                         : 1h 13mn\nOverall bit rate                 : 1 336 Kbps\nWriting application              : Lavf51.12.1\n\nVideo\nID                               : 0\nFormat                           : MPEG-4 Visual\nCodec ID                         : DIV3\nCodec ID/Hint                    : DivX 3 Low\nDuration                         : 1h 13mn\nBit rate                         : 1 195 Kbps\nWidth                            : 640 pixels\nHeight                           : 360 pixels\nDisplay aspect ratio             : 16/9\nFrame rate                       : 29.000 fps\nResolution                       : 24 bits\nBits/(Pixel*Frame)               : 0.179\nStream size                      : 630 MiB (89%)\n\nAudio\nID                               : 1\nFormat                           : MPEG Audio\nFormat version                   : Version 1\nFormat profile                   : Layer 3\nCodec ID                         : 55\nCodec ID/Hint                    : MP3\nDuration                         : 1h 13mn\nBit rate mode                    : Constant\nBit rate                         : 128 Kbps\nChannel(s)                       : 2 channels\nSampling rate                    : 44.1 KHz\nResolution                       : 16 bits\nStream size                      : 67.5 MiB (10%)\nAlignment                        : Aligned on interleaves\nInterleave, duration             : 26 ms (0.76 video frame)\nWriting library                  : LAME3.97\n\nNo Passwords\nNo RAR\nNo Bullshit !\n\nSEED SEED SEED !!!\nI will seed this until my Ratio Hits 2.0","torrent":{"xt":"urn:btih:a7b090f4dfbb11b90dc40f8bd6ca839a44a59e5d","amp;dn":"Shauna+Sand+Exposed+%28SteRipper%29%28RSC%29","amp;tr":["udp%3A%2F%2Ftracker.openbittorrent.com%3A80","udp%3A%2F%2Fopen.demonii.com%3A1337","udp%3A%2F%2Ftracker.coppersurfer.tk%3A6969","udp%3A%2F%2Fexodus.desync.com%3A6969"],"infoHash":"a7b090f4dfbb11b90dc40f8bd6ca839a44a59e5d","infoHashBuffer":{"type":"Buffer","data":[167,176,144,244,223,187,17,185,13,196,15,139,214,202,131,154,68,165,158,93]},"announce":[],"urlList":[]}}